<?xml version="1.0" encoding="utf-8"?>
<!-- Generator: Adobe Illustrator 24.2.1, SVG Export Plug-In . SVG Version: 6.00 Build 0)  -->
<svg version="1.1" id="Layer_1" xmlns="http://www.w3.org/2000/svg" xmlns:xlink="http://www.w3.org/1999/xlink" x="0px" y="0px"
	 width="1095px" height="635px" viewBox="0 0 1095 635" style="enable-background:new 0 0 1095 635;" xml:space="preserve">
<style type="text/css">
	.st0{fill:#F1F1F2;}
	.st1{fill:#C1BEBF;}
	.st2{fill:#FFFFFF;}
	.st3{fill:#E8E7E8;}
	.st4{fill:#4388C8;}
	.st5{fill:#1062A9;}
	.st6{fill:#3BA635;}
	.st7{clip-path:url(#SVGID_2_);}
	.st8{fill:#EAC638;}
	.st9{fill:#F3F3F4;}
	.st10{fill:#369537;}
	.st11{fill:#5A585B;}
	.st12{fill:#8B6084;}
	.st13{fill:#B1403E;}
	.st14{fill:#E9E8E9;}
	.st15{fill:#7F7F7F;}
	.st16{fill:#959595;}
	.st17{fill:#807F80;}
	.st18{fill:#292A2E;}
	.st19{fill:#2A63A3;}
	.st20{fill:#5387C2;}
	.st21{fill:#343147;}
	.st22{clip-path:url(#SVGID_4_);}
	.st23{fill-rule:evenodd;clip-rule:evenodd;fill:#8B6084;}
	.st24{fill-rule:evenodd;clip-rule:evenodd;fill:#FFFFFF;}
	.st25{fill-rule:evenodd;clip-rule:evenodd;}
</style>
<path class="st0" d="M153.03,580.41c3.26,1.11,6.49,2.13,9.69,3.07l-22.98-92.01h6.02l-17.44-54.27l-23.09-52.69
	c0,0,1.13-16.07,5.1-42.33s10.51-46,17.18-56.99c6.68-10.98,20.22-17.34,29.93-22.6c5.63-3,10.9-6.63,15.71-10.82l8.32-6.36
	l26.69,2.65l44.2,21.28l10.62,11.25l2.1,1.77l-35.66,14.12l45.84,80.22c-4.15,16.4-6.37,59.68,1.59,80.22
	c7.96,20.54,30.4,31.03,30.4,31.03c0.34,1.36,0.58,2.75,0.69,4.15c18.2,4.68,78.88,20.31,96.48,25.01
	c20.79,5.55,32.11,13.39,36.27,22.24c2.95,6.32,8.42,21.19,11.33,29.14c6.55-0.23,12.97-0.34,19.27-0.4l-3.59-136.59h23.8
	l-3.48,136.64c88.98,1.28,153.99,18.42,195.91,25.83c64.3,11.33,168.87,14.8,230.46-36.12c25.9-21.42,56.33-54.85,78.44-86.14
	c21.07-60.35,18.86-127.3,0.73-179.07c-30.79-87.76-118.3-203.74-304.59-218.1c-142.12-10.96-250.87,39.95-362.22,68.77
	S2.42,216.89,12.33,402.72c1.13,20.66,7.57,53.27,23.62,85.58C58.33,528.09,95.95,560.88,153.03,580.41z"/>
<path class="st1" d="M522.21,379.47c-0.36,0.6,14.73,36.56,14.73,36.56l49.87-1.03l6.11-5.92l-13.02-32.6
	C579.9,376.49,524.76,375.21,522.21,379.47z"/>
<path class="st2" d="M584.33,419.22H489.3v-6.8h95.03c2.87,0.01,5.2-2.31,5.2-5.18c0-0.76-0.16-1.52-0.49-2.21l-9.97-21.53
	l6.17-2.86l9.98,21.53c2.76,6.03,0.11,13.15-5.91,15.91c-1.56,0.72-3.26,1.09-4.98,1.09V419.22z"/>
<path class="st1" d="M656.67,385.29l-231.99-2.83c-6.9-0.09-12.53-5.57-12.8-12.47l-3.4-166.5c0.03-6.87,5.46-12.5,12.32-12.78
	l232.07-11.84c8.28-0.42,15.15,5.21,15.29,12.59l3.4,180.75C671.62,379.62,664.98,385.42,656.67,385.29z"/>
<polygon class="st3" points="655.8,353.79 424.01,351.28 421.31,206.34 652.88,195.91 "/>
<path class="st1" d="M560.17,310.77l-0.14-7.14c0-0.13,0.09-0.23,0.22-0.24c0.07,0,0.13,0.03,0.18,0.08l6.12,7.12
	c0.07,0.09,0.07,0.22,0,0.31l-5.86,7.16c-0.07,0.1-0.22,0.12-0.32,0.05c-0.06-0.05-0.09-0.12-0.09-0.19L560.17,310.77z"/>
<polygon class="st4" points="504.93,311.02 546.45,310.83 546.23,298.74 504.7,299.12 "/>
<polygon class="st5" points="505.14,322.92 546.67,322.92 546.45,310.83 504.93,311.02 "/>
<path class="st4" d="M505.31,331.65c-0.01,1.71,1.35,3.12,3.06,3.18l35.44,0.16c1.7-0.02,3.05-1.42,3.03-3.11c0-0.03,0-0.06,0-0.09
	l-0.17-8.86h-41.52L505.31,331.65z"/>
<path class="st4" d="M545.83,277.79c0.01-1.73-1.38-3.15-3.12-3.16c-0.01,0-0.02,0-0.02,0l-35.43,0.63
	c-1.7,0.08-3.01,1.52-2.94,3.22l0.16,8.74l41.52-0.56L545.83,277.79z"/>
<polygon class="st5" points="504.49,287.22 504.7,299.12 546.23,298.74 546,286.66 "/>
<path class="st2" d="M512.68,281.13c0.05,0.98-0.7,1.82-1.68,1.87c-0.01,0-0.01,0-0.02,0c-0.99-0.01-1.79-0.82-1.78-1.81
	c-0.08-0.96,0.64-1.8,1.6-1.88c0.96-0.08,1.8,0.64,1.88,1.6c0.01,0.09,0.01,0.19,0,0.28V281.13z"/>
<path class="st2" d="M512.91,293.08c0.04,0.98-0.71,1.8-1.69,1.85c-0.01,0-0.02,0-0.03,0c-1.01,0.07-1.89-0.7-1.96-1.71
	c-0.07-1.01,0.7-1.89,1.71-1.96c1.01-0.07,1.89,0.7,1.96,1.71C512.9,293,512.91,293.04,512.91,293.08z"/>
<path class="st2" d="M513.12,305.01c0.06,0.96-0.68,1.79-1.64,1.84c-0.02,0-0.04,0-0.06,0c-0.99-0.02-1.79-0.83-1.78-1.82
	c-0.04-0.98,0.71-1.8,1.69-1.85c0.01,0,0.02,0,0.03,0C512.34,303.21,513.13,304.02,513.12,305.01z"/>
<path class="st2" d="M513.35,316.95c0.05,0.97-0.69,1.8-1.66,1.85c-0.02,0-0.03,0-0.05,0c-0.99-0.03-1.77-0.85-1.77-1.84
	c-0.05-0.96,0.69-1.78,1.65-1.83c0.02,0,0.03,0,0.05,0C512.56,315.15,513.35,315.96,513.35,316.95z"/>
<path class="st2" d="M513.58,328.89c0.04,0.96-0.7,1.78-1.66,1.82c-0.02,0-0.03,0-0.05,0c-0.99-0.03-1.78-0.84-1.78-1.84
	c-0.04-0.97,0.71-1.79,1.68-1.83c0.01,0,0.02,0,0.04,0C512.79,327.08,513.58,327.9,513.58,328.89z"/>
<path class="st6" d="M627.65,310.49c0.41,13.26-10.02,24.35-23.28,24.75c-0.22,0.01-0.45,0.01-0.67,0.01
	c-13.44-0.26-24.26-11.13-24.46-24.57c-0.4-13.28,10.04-24.38,23.32-24.78c0.07,0,0.15,0,0.22-0.01
	C616.41,285.89,627.5,296.86,627.65,310.49z"/>
<polygon class="st2" points="597.26,321.25 586.98,310.95 596.11,301.36 599.59,304.83 593.76,310.92 597.13,314.29 609.84,301.01 
	619.67,310.73 610.91,319.82 607.4,316.32 612.76,310.76 609.98,308 "/>
<g>
	<defs>
		<polygon id="SVGID_1_" points="597.26,321.25 586.98,310.95 596.11,301.36 599.59,304.83 593.76,310.92 597.13,314.29 
			609.84,301.01 619.67,310.73 610.91,319.82 607.4,316.32 612.76,310.76 609.98,308 		"/>
	</defs>
	<clipPath id="SVGID_2_">
		<use xlink:href="#SVGID_1_"  style="overflow:visible;"/>
	</clipPath>
	<g class="st7">
		<polygon class="st8" points="597.13,314.29 601.06,318.21 610.42,308.46 604.78,302.85 		"/>
	</g>
</g>
<path class="st1" d="M623.42,272.94l-47.91,0.86c-1.77,0.08-3.28-1.27-3.4-3.04l-1.01-54.22c0.08-1.79,1.55-3.21,3.34-3.24
	l47.88-1.92c1.81-0.17,3.41,1.16,3.58,2.97c0,0.02,0,0.04,0,0.06l1.03,55.3C626.85,271.57,625.28,273.01,623.42,272.94z"/>
<polygon class="st3" points="620.33,219.33 576.56,220.96 576.52,218.56 620.28,216.89 "/>
<polygon class="st3" points="620.45,225.76 576.68,227.29 576.64,224.88 620.41,223.32 "/>
<polygon class="st3" points="620.56,232.18 576.79,233.61 576.75,231.21 620.52,229.73 "/>
<path class="st4" d="M598.58,236.68c-2.1,0.07-4.16,0.57-6.05,1.48l6.35,14.13L598.58,236.68z"/>
<path class="st8" d="M610.33,241.8c-2.95-3.38-7.27-5.26-11.75-5.12l0.29,15.62L610.33,241.8z"/>
<path class="st6" d="M610.8,262.09c2.29-2.9,3.49-6.51,3.4-10.2c-0.05-3.73-1.44-7.31-3.91-10.1l-11.46,10.49L610.8,262.09z"/>
<path class="st5" d="M598.87,252.3l-13.08,8.02c4.15,7.23,13.37,9.73,20.61,5.58c1.7-0.97,3.19-2.27,4.4-3.81L598.87,252.3z"/>
<path class="st9" d="M592.53,238.17c-7.86,3.87-11.09,13.39-7.22,21.25c0.15,0.31,0.31,0.61,0.49,0.91l13.08-8.02L592.53,238.17z"/>
<path class="st2" d="M478.52,284.95c-1.89,0.02-3.73,0.65-5.25,1.78c-1.04-6.98-6.71-12.27-13.51-12.15
	c-7.33,0.14-13.12,6.62-12.98,14.48c0,0.35,0,0.69,0.07,1.04c-0.35-0.06-0.7-0.09-1.05-0.08c-4.07,0.21-7.2,3.67-7,7.74
	c0,0.01,0,0.03,0,0.04c-0.06,4.11,3.17,7.51,7.28,7.66l32.77-0.23c5.38-0.21,9.57-4.73,9.37-10.11c0-0.05,0-0.1-0.01-0.15
	C488.15,289.37,483.78,284.87,478.52,284.95z"/>
<polygon class="st1" points="544.88,226.02 437.59,229.85 437.41,219.95 544.69,215.71 "/>
<polygon class="st1" points="524.19,239 437.81,241.7 437.74,237.97 524.12,235.15 "/>
<polygon class="st1" points="511.24,256.4 438.12,258.23 438.05,254.5 511.17,252.57 "/>
<polygon class="st1" points="511.08,247.91 437.97,249.96 437.9,246.24 511.01,244.08 "/>
<path class="st1" d="M498.94,325.15H469.9c-4.05-0.17-7.24-3.52-7.21-7.57l-0.14-7.49h2.05l0.15,7.5c-0.03,2.87,2.23,5.24,5.1,5.35
	h29.06L498.94,325.15z"/>
<path class="st8" d="M415.43,328.22l-63.96-0.12c-6.92-0.04-12.56-5.55-12.76-12.47l-0.97-52.33c-0.11-6.94,5.36-12.68,12.3-12.89
	l63.92-1.85c7.18-0.3,13.24,5.28,13.54,12.46c0,0.03,0,0.05,0,0.08l1,54.19c0.06,7.09-5.64,12.88-12.73,12.93
	C415.65,328.23,415.54,328.22,415.43,328.22z"/>
<path class="st2" d="M408.83,283.4c-0.05-0.32-0.3-0.57-0.61-0.61l-6.26-0.63c-0.53-1.71-1.26-3.36-2.16-4.91l3.94-5.33
	c0.19-0.28,0.19-0.64,0-0.92c-1.9-2.77-4.28-5.17-7.03-7.11c-0.24-0.18-0.58-0.16-0.79,0.06l-5.16,4.74
	c-1.09-0.54-2.23-0.98-3.4-1.3l-1.01-7.24c-0.03-0.32-0.27-0.57-0.58-0.62c-2.88-0.42-5.8-0.32-8.65,0.28
	c-0.29,0.08-0.51,0.33-0.53,0.63l-0.9,7.41c-1.19,0.44-2.33,0.99-3.4,1.65l-4.91-4.53c-0.23-0.21-0.58-0.21-0.82,0
	c-2.46,2.01-4.57,4.43-6.22,7.14c-0.18,0.27-0.18,0.62,0,0.9l3.97,5.26c-0.73,1.45-1.31,2.97-1.73,4.53l-6.04,1.01
	c-0.3,0.06-0.51,0.31-0.53,0.61c-0.45,3.45-0.35,6.95,0.29,10.37c0.05,0.3,0.29,0.53,0.59,0.58l5.67,0.63
	c0.36,1.36,0.84,2.68,1.43,3.96l-3.57,4.59c-0.19,0.27-0.19,0.63,0,0.9c1.75,2.86,3.99,5.39,6.62,7.48c0.23,0.19,0.56,0.19,0.78,0
	l4.33-3.57c1.41,0.91,2.94,1.64,4.53,2.16l0.59,5.83c0.02,0.32,0.25,0.58,0.56,0.66c3.26,0.67,6.62,0.67,9.87,0
	c0.3-0.08,0.51-0.34,0.53-0.65l0.46-5.95c1.63-0.58,3.18-1.36,4.6-2.35l4.35,3.65c0.24,0.2,0.58,0.2,0.82,0
	c2.6-2.14,4.79-4.72,6.48-7.63c0.17-0.3,0.13-0.67-0.1-0.93l-3.97-4.32c0.65-1.5,1.16-3.05,1.51-4.65l5.77-0.46
	c0.32-0.04,0.58-0.3,0.61-0.62C409.38,290.56,409.4,286.94,408.83,283.4z M382.56,302.42c-6.64,0.06-12.1-5.85-12.24-13.18
	c-0.14-7.33,5.11-13.39,11.74-13.51c6.63-0.12,12.23,5.78,12.36,13.18c0.09,3.49-1.12,6.88-3.4,9.52
	C388.91,300.91,385.82,302.37,382.56,302.42z"/>
<path class="st2" d="M388.69,288.77c0.07,3.9-2.73,7.09-6.24,7.13s-6.41-3.07-6.48-6.96c-0.07-3.89,2.71-7.07,6.21-7.13
	C385.68,281.75,388.62,284.87,388.69,288.77z"/>
<path class="st10" d="M814.05,261.64c0,0-10.2-48.62-24.84-75.18c-14.64-26.55-22.67-19.09-27.69-13.84
	c-5.02,5.25-37.5,55.68-40.05,97.47c0,0,13.87-34.49,21.34-48.93c7.71-14.88,21.31-43.36,28.56-42.39
	c8.5,1.13,27.61,65.19,31.64,81.55l1.63,16.73h11.86L814.05,261.64z"/>
<path class="st2" d="M750.04,279.03l-129.48,1.98c-8.45,0.12-15.46-5.97-15.6-13.6l-1.76-94.68c-0.15-7.59,6.62-14.2,15.07-14.73
	l129.35-7.6c9.32-0.56,17.1,5.56,17.25,13.6l1.86,100.2C766.9,272.21,759.36,278.9,750.04,279.03z"/>
<path class="st1" d="M658.94,243.32c-0.04-0.23-0.24-0.41-0.48-0.43l-4.84-0.37c-0.42-1.21-0.98-2.37-1.68-3.46l3.07-3.81
	c0.15-0.19,0.15-0.46,0-0.66c-1.51-1.97-3.35-3.65-5.45-4.96c-0.19-0.13-0.44-0.13-0.62,0l-4.02,3.4c-0.84-0.37-1.72-0.67-2.62-0.88
	l-0.77-5.13c-0.05-0.21-0.22-0.37-0.43-0.4c-2.27-0.27-4.56-0.18-6.8,0.28c-0.22,0.04-0.39,0.23-0.42,0.45l-0.71,5.28
	c-0.92,0.32-1.81,0.72-2.65,1.2l-3.83-3.17c-0.19-0.15-0.45-0.15-0.63,0c-1.91,1.43-3.56,3.16-4.9,5.13c-0.15,0.19-0.15,0.46,0,0.65
	l3.11,3.71c-0.57,1.02-1.03,2.1-1.37,3.22l-4.74,0.78c-0.22,0.04-0.39,0.22-0.42,0.44c-0.36,2.45-0.29,4.95,0.22,7.38
	c0.05,0.23,0.24,0.39,0.46,0.41l4.53,0.39c0.29,0.97,0.67,1.9,1.13,2.8l-2.81,3.31c-0.15,0.19-0.15,0.45,0,0.63
	c1.4,2.04,3.15,3.81,5.18,5.24c0.18,0.14,0.43,0.14,0.61,0l3.4-2.6c1.13,0.64,2.33,1.13,3.58,1.47l0.45,4.14
	c0.03,0.23,0.2,0.42,0.43,0.46c2.56,0.41,5.17,0.35,7.71-0.18c0.23-0.05,0.39-0.24,0.42-0.46l0.37-4.23
	c1.26-0.43,2.46-1.01,3.58-1.73l3.4,2.53c0.19,0.15,0.45,0.15,0.63,0c2-1.51,3.71-3.37,5.04-5.49c0.13-0.21,0.1-0.48-0.07-0.66
	l-3.13-3.05c0.49-1.06,0.87-2.16,1.13-3.3l4.48-0.41c0.24-0.02,0.44-0.2,0.49-0.44C659.41,248.33,659.39,245.79,658.94,243.32z
	 M638.47,257.12c-5.18,0.11-9.46-4-9.56-9.18c0-0.02,0-0.03,0-0.05c-0.1-5.21,4-9.54,9.21-9.72c5.16-0.15,9.46,3.91,9.61,9.06
	c0,0.05,0,0.1,0,0.15c0.05,2.53-0.9,4.97-2.64,6.8C643.36,256,640.98,257.05,638.47,257.12z"/>
<path class="st1" d="M643.27,247.35c0.06,2.76-2.12,5.06-4.88,5.15c-2.73,0.06-5-2.11-5.05-4.85c0-0.01,0-0.02,0-0.02
	c-0.05-2.76,2.12-5.04,4.87-5.13c2.72-0.08,4.99,2.07,5.06,4.79C643.27,247.3,643.27,247.32,643.27,247.35z"/>
<polygon class="st1" points="705,176.25 616.34,180.77 616.2,173.38 704.85,168.63 "/>
<polygon class="st1" points="753.02,187.4 616.59,193.73 616.52,190.03 752.95,183.53 "/>
<polygon class="st1" points="753.27,200.54 616.81,206.25 616.75,202.56 753.2,196.66 "/>
<polygon class="st1" points="753.51,213.67 617.05,218.79 616.98,215.08 753.44,209.8 "/>
<polygon class="st1" points="753.76,226.81 668.72,229.61 668.65,225.85 753.69,222.93 "/>
<polygon class="st1" points="754.01,239.94 668.96,242.37 668.89,238.61 753.93,236.07 "/>
<polygon class="st1" points="754.24,253.09 669.2,255.12 669.13,251.36 754.18,249.22 "/>
<polygon class="st1" points="754.49,266.23 669.44,267.88 669.37,264.12 754.41,262.35 "/>
<rect x="237.02" y="419.22" class="st11" width="355.08" height="12.3"/>
<path class="st1" d="M592.11,419.22h283.1c6.79,0,12.3,5.51,12.3,12.3l0,0l0,0h-295.4l0,0V419.22L592.11,419.22z"/>
<circle class="st12" cx="60.84" cy="336.88" r="14.85"/>
<circle class="st8" cx="48.61" cy="178.23" r="6.83"/>
<circle class="st13" cx="479.61" cy="143.78" r="15.43"/>
<circle class="st2" cx="414.56" cy="163.48" r="6.11"/>
<circle class="st1" cx="604.04" cy="77.79" r="34.35"/>
<circle class="st14" cx="976.35" cy="267.58" r="40.76"/>
<circle class="st12" cx="921.35" cy="131.94" r="11.36"/>
<polygon class="st15" points="853.65,419.22 850.44,419.22 841.87,369.02 849.46,368.07 "/>
<path class="st16" d="M779.17,364.67h81.6l0,0l0,0c0,4.06-3.29,7.36-7.36,7.36h-74.24l0,0v-7.36H779.17z"/>
<polygon class="st8" points="852.05,364.67 776.86,364.67 771.19,277.1 856.59,277.1 "/>
<path class="st10" d="M756.7,119.57c0,0,38.02,37.54,53.6,126.17l3.77,3l-3.63-51.96C810.45,196.78,788.44,134.68,756.7,119.57z"/>
<path class="st10" d="M801.42,277.1c0,0-4.93-18.13-17-18.13c-13.43,0-17.76,23.4-20.68,50.33c-2.58,23.7-5.67,89.54,1.38,126.44
	c0,0,2.53-45.23,3.24-66.08c0.71-20.84,5.87-67.16,8.34-80.59c2.47-13.43,5.09-23.01,8.79-22.54c3.71,0.46,6.6,10.59,6.6,10.59
	L801.42,277.1z"/>
<path class="st6" d="M818.23,277.1c0,0-4.76-28.33-16.82-28.33c-13.43,0-17.92,33.64-20.85,60.57c-2.58,23.7-5.67,89.54,1.39,126.44
	c0,0,2.53-45.23,3.24-66.08c0.71-20.84,5.86-67.16,8.33-80.59c2.47-13.43,5.1-23.01,8.81-22.54s5.67,10.56,5.67,10.56L818.23,277.1z
	"/>
<path class="st10" d="M832.8,277.1c0,0,4.93-18.13,17-18.13c13.43,0,17.75,23.4,20.68,50.33c2.58,23.7,5.67,89.54-1.38,126.44
	c0,0-2.53-45.23-3.24-66.08c-0.71-20.84-5.87-67.16-8.34-80.59c-2.47-13.43-5.1-23.01-8.79-22.54c-3.69,0.46-7.02,11.75-7.02,11.75
	L832.8,277.1z"/>
<path class="st6" d="M810.1,253.53c0,0,0-73.51-1.24-96.56c-1.24-23.05-2.88-70.39-34.17-97.15c0,0,34,16.47,43.43,69.57
	s5.45,147.71,5.45,147.71h-8.94L810.1,253.53z"/>
<path class="st10" d="M842.52,215.65c0,0,11.63-23.57,22.23-22.44s21.61,33.75,20.03,49.1c0,0-12.61-39.67-22.28-39.21
	s-29.91,51.39-33.62,62.9C825.17,277.5,836.96,223.05,842.52,215.65z"/>
<path class="st6" d="M816.5,277.1c0,0-4.34-65.58,19.27-94.6c0,0-8.02,30.36-7.93,43.85c0,0,16.37-51.57,49.71-65.57
	c33.34-14,54.97,6.48,67.93,19.66c0,0-30.15-27.63-63.91-9.37c-31.39,17-53.42,80.47-53.42,106.03H816.5z"/>
<path class="st6" d="M828.92,265.99c0,0,3.66-5.11,9.07-2.44c5.09,2.49,8.69,16.31,9.93,32.37s0.93,37.47,0.93,37.47
	s-4.94-31.5-7.82-43.24c-2.88-11.74-4.33-21.09-8.85-21.09s-4.44,8.04-4.44,8.04S827.27,267.96,828.92,265.99z"/>
<path class="st17" d="M393.39,378.42c0,0,80.6,18.05,88.78,18.05s28.1-7.48,36.03-7.71c7.37-0.22,23.31,6.03,27.46,9.42
	c3.55,2.89,20.58,21.04,8.99,21.04c-11.59,0-175.8,0.25-175.8,0.25L393.39,378.42z"/>
<path class="st17" d="M274.69,143.78c0,0,6.12,15.72,7.19,19.7c1.25,4.65,2.64,10.2,1.76,14.92c-0.73,3.94-2.77,7.53-1.07,12.47
	c1.7,4.94,2.14,7.76-0.93,23.88s-8.18,8.7-8.18,8.7l-14.35-3.4l-6.03-60.36C253.07,159.68,269.21,147.61,274.69,143.78z"/>
<path class="st17" d="M247.82,245.73c0,0-0.92,14.44,4.53,23.63s-26.14-14.98-26.14-14.98l-46.8-16.37l2.54-6.35l15.99-23.51
	l20.89-29.54l24.97-9.8l9.07,17.91l2.01,41.99L247.82,245.73z"/>
<path class="st18" d="M181.92,231.66c-1.26-2.29-1.46-5.03-0.53-7.48c1.48-4.45-0.66-15.71-2.03-21.53
	c-1.58-6.74-7.67-15.74-10.13-20.88c-3-6.27-6.14-17.17-0.99-27.45c4.95-9.88,10.2-13.76,16.86-14.82c0,0,5.61-14.99,29.07-17.28
	c19.63-1.92,32.57,2.27,44.72,4.85c10.12,2.19,13.49-0.7,15.45-4.31c0,0,9.67,4.01,5.81,17.24c-3.34,11.48-17,14.94-18.7,25.51
	c-1.7,10.57-0.97,23.69,0.27,36.92c0.71,7.7,1.28,12.84,5.29,13.07s9.34-7.93,15.74-7c3.28,0.44,1.96,15.81,1.13,21.4
	c-0.77,5.27-2.7,27.79-20.96,26.72c-18.26-1.07-18.05-13.95-17.39-17.88c0.67-3.93,4.03-15.92,4.25-24.84
	c0.22-8.92-0.99-24.32-3.82-29.94c-2.66-5.27-9.07-8.18-13.6-4.78s-4.53,10.2-2.54,17.94c1.99,7.74,2.65,19.01-4.88,25.39
	C217.43,228.87,206.34,235.52,181.92,231.66z"/>
<path class="st19" d="M307.89,492.12c-0.12-1.4-0.35-2.79-0.69-4.15c0,0-22.44-10.49-30.4-31.03c-7.96-20.54-5.73-63.82-1.59-80.22
	l-45.84-80.22l35.66-14.12l-2.1-1.77l-10.57-11.25l-44.2-21.28l-26.69-2.65l-8.32,6.36c-4.81,4.19-10.08,7.83-15.71,10.82
	c-9.71,5.26-23.25,11.62-29.93,22.6c-6.69,10.98-13.2,30.73-17.18,57.02s-5.1,42.33-5.1,42.33l23.09,52.69l17.44,54.27h14.73
	l24.32,97.34c25.4,4.77,49.73,4.74,75.39,2.35c2.27-0.36,4.44-0.73,6.65-1.13c3.43-0.6,6.86-1.23,10.3-1.9
	c7.46-10.63,19.6-30.27,25.42-52.74C308.63,512.13,308.53,498.41,307.89,492.12z"/>
<path class="st20" d="M398.81,373.45c0,0,2.06,32.52-23.88,57.63c0,0-50.63-12.97-62.57-18.13c-11.95-5.17-69.42-46.47-84.76-58.4
	c-20.58-16.07-36.58-47.87-15.87-72.05c16.83-19.62,41.93-11.58,65.41,9.41c22.67,20.29,74.31,66.87,78.02,68.14
	C358.86,361.32,398.81,373.45,398.81,373.45z"/>
<path class="st20" d="M173.15,251.78c0,0-0.96-13.6,8.77-20.12c0,0,53.37,14.85,83.11,50.72c0,0-24.04-21.21-49.74-27.99
	C190.26,247.78,179.82,249.58,173.15,251.78z"/>
<path class="st11" d="M488.02,568.16l3.48-136.64h-23.8l3.47,136.59C476.89,568.06,482.51,568.08,488.02,568.16z"/>
<path class="st21" d="M440.6,539.42c-4.11-8.85-15.44-16.68-36.27-22.24c-17.6-4.7-78.28-20.33-96.48-25.01
	c0.63,6.29,0.74,20.02-5.3,43.28c-5.83,22.46-17.96,42.1-25.42,52.74c-0.31,0.44-0.61,0.86-0.9,1.26
	c36.81-4.53,77.2-12.71,127.76-17.69l0,0c16.58-1.63,32.53-2.66,47.86-3.2C449.02,560.56,443.54,545.69,440.6,539.42z"/>
<path class="st19" d="M260.21,591.16l6.71-0.68l-0.06-0.44C264.66,590.43,262.43,590.8,260.21,591.16z"/>
<path class="st19" d="M266.87,590.04l0.06,0.44c3.09-0.32,6.21-0.7,9.35-1.13c0.28-0.4,0.59-0.82,0.9-1.26
	C273.74,588.79,270.3,589.44,266.87,590.04z"/>
<path class="st1" d="M169.69,565.97l-23.94-74.5h-6.02l22.98,92.01c4.46,1.31,8.86,2.47,13.2,3.48L169.69,565.97z"/>
<path class="st1" d="M175.92,586.96c2.98,0.68,5.94,1.3,8.9,1.86l-24.27-97.34h-14.73l23.94,74.5L175.92,586.96z"/>
<path class="st21" d="M179.03,495.87h-52.71c-5.11-0.01-9.58-3.45-10.91-8.39L89.53,390.4c-1.57-6.06,2.07-12.24,8.13-13.82
	c0.93-0.24,1.88-0.36,2.83-0.36h52.71c5.11,0.01,9.58,3.45,10.91,8.39l25.83,97.02c1.61,6.05-1.99,12.26-8.04,13.87
	C180.97,495.74,180,495.87,179.03,495.87z"/>
<path class="st3" d="M1066.11,564.93H642.54c-11.49,0-20.89-7.14-20.89-15.87V394.24c0-8.73,9.4-15.87,20.89-15.87h423.57
	c11.49,0,20.89,7.14,20.89,15.87v154.82C1087,557.78,1077.6,564.93,1066.11,564.93z"/>
<path class="st2" d="M621.11,365.93h440.2c7.51,0,13.6,6.09,13.6,13.6v163.46c0,7.51-6.09,13.6-13.6,13.6h-440.2
	c-7.51,0-13.6-6.09-13.6-13.6V379.53C607.51,372.02,613.6,365.93,621.11,365.93z"/>
<g>
	<defs>
		<path id="SVGID_3_" d="M621.11,365.93h440.2c7.51,0,13.6,6.09,13.6,13.6v163.46c0,7.51-6.09,13.6-13.6,13.6h-440.2
			c-7.51,0-13.6-6.09-13.6-13.6V379.53C607.51,372.02,613.6,365.93,621.11,365.93z"/>
	</defs>
	<clipPath id="SVGID_4_">
		<use xlink:href="#SVGID_3_"  style="overflow:visible;"/>
	</clipPath>
	<g class="st22">
		<rect x="607.51" y="365.93" class="st2" width="467.4" height="190.67"/>
		<rect x="607.51" y="365.93" class="st2" width="467.4" height="129.83"/>
		<path class="st2" d="M709.32,395.58c4.26-4.47,10.16-6.99,16.33-6.99c8.28,0.05,15.9,4.55,19.94,11.78
			c3.54-1.6,7.37-2.42,11.25-2.43c15.48,0.31,27.77,13.11,27.46,28.59c-0.3,15.04-12.42,27.16-27.46,27.46
			c-1.83-0.02-3.65-0.19-5.45-0.51c-5.24,9.43-16.93,13.11-26.62,8.39c-5.04,11.78-18.68,17.24-30.46,12.2
			c-5.84-2.5-10.39-7.28-12.61-13.23c-11.8,2.32-23.26-5.36-25.58-17.17c-1.79-9.09,2.37-18.32,10.36-23
			c-1.37-3.13-2.07-6.51-2.06-9.93c0.01-13.83,11.23-25.03,25.06-25.01c7.81,0.01,15.16,3.65,19.89,9.86L709.32,395.58z"/>
		<path class="st2" d="M674.3,432.5c-0.07,0.23,0,0.23,0.08,0.29c0.08,0.07,0.51,0.29,0.74,0.44c1.18,0.59,2.49,0.9,3.82,0.88
			c2.65,0,4.27-1.39,4.27-3.68v-0.07c0-2.06-1.85-2.87-3.6-3.4h-0.15c-1.33-0.44-2.43-0.8-2.43-1.69v-0.07
			c0-0.74,0.66-1.26,1.69-1.26c1.19,0.02,2.35,0.32,3.4,0.88c0.12,0.08,0.29,0.05,0.37-0.07c0.2-0.48,0.37-0.97,0.51-1.47
			c0.08-0.15-0.07-0.23-0.15-0.29c-1.16-0.67-2.48-1.02-3.82-1.03h-0.29c-2.43,0-4.13,1.47-4.13,3.54v0.07
			c0,2.21,1.85,2.95,3.6,3.46l0.29,0.08c1.26,0.36,2.36,0.73,2.36,1.61v0.08c0,0.8-0.74,1.39-1.84,1.39
			c-1.2,0.01-2.38-0.32-3.4-0.95c-0.22-0.08-0.29-0.23-0.44-0.29c-0.15-0.07-0.29-0.15-0.36,0.15L674.3,432.5z"/>
		<path class="st2" d="M713.07,432.5c-0.08,0.23,0,0.23,0.07,0.29c0.07,0.07,0.52,0.29,0.74,0.44c1.19,0.6,2.5,0.9,3.83,0.88
			c2.64,0,4.26-1.39,4.26-3.68v-0.07c0-2.06-1.84-2.87-3.6-3.4l-0.22-0.07c-1.33-0.44-2.44-0.82-2.44-1.69v-0.08
			c0-0.74,0.67-1.25,1.7-1.25c1.19,0.02,2.35,0.32,3.4,0.88c0.12,0.08,0.28,0.05,0.36-0.06c0-0.01,0.01-0.01,0.01-0.02
			c0.2-0.48,0.37-0.97,0.51-1.47c0.08-0.15-0.07-0.22-0.15-0.29c-1.16-0.67-2.48-1.02-3.82-1.03h-0.29c-2.43,0-4.13,1.47-4.13,3.54
			v0.08c0,2.2,1.85,2.94,3.6,3.46l0.29,0.07c1.26,0.36,2.36,0.74,2.36,1.62v0.07c0,0.82-0.74,1.41-1.84,1.41
			c-1.2,0.01-2.38-0.32-3.4-0.96c-0.17-0.05-0.33-0.16-0.44-0.29c-0.07,0-0.29-0.15-0.36,0.15L713.07,432.5z"/>
		<path class="st2" d="M741.76,425.74c-0.21-0.7-0.56-1.36-1.03-1.92c-0.48-0.53-1.06-0.98-1.69-1.33
			c-0.75-0.31-1.55-0.46-2.36-0.44c-0.8-0.02-1.6,0.13-2.35,0.44c-0.67,0.29-1.26,0.74-1.7,1.33c-0.47,0.56-0.82,1.21-1.03,1.92
			c-0.21,0.77-0.31,1.56-0.29,2.36c-0.02,0.79,0.08,1.58,0.29,2.35c0.21,0.7,0.56,1.35,1.03,1.92c0.47,0.54,1.05,0.96,1.7,1.25
			c0.74,0.31,1.54,0.46,2.35,0.44c0.81,0.02,1.61-0.13,2.36-0.44c0.65-0.29,1.22-0.71,1.69-1.25c0.48-0.56,0.83-1.21,1.03-1.92
			c0.21-0.76,0.31-1.55,0.29-2.35C742.03,427.3,741.93,426.51,741.76,425.74 M739.55,428.09c0.07,1.06-0.19,2.11-0.74,3.01
			c-0.46,0.72-1.28,1.12-2.13,1.03c-0.84,0.05-1.65-0.34-2.13-1.03c-0.49-0.93-0.72-1.97-0.66-3.01c-0.05-1.05,0.17-2.09,0.66-3.01
			c0.46-0.72,1.28-1.12,2.13-1.03c0.84-0.05,1.65,0.34,2.13,1.03C739.32,426,739.58,427.04,739.55,428.09"/>
		<path class="st2" d="M759.85,431.76c-0.04-0.12-0.17-0.19-0.29-0.15c-0.33,0.14-0.68,0.24-1.03,0.29
			c-0.37,0.06-0.75,0.09-1.13,0.08c-0.94,0.07-1.86-0.28-2.5-0.96c-0.69-0.85-1.02-1.93-0.95-3.01c-0.06-1.05,0.26-2.09,0.88-2.94
			c0.56-0.77,1.48-1.2,2.43-1.13c0.8-0.03,1.6,0.1,2.36,0.37c0,0,0.15,0.07,0.22-0.15c0.23-0.5,0.41-1.02,0.52-1.55
			c0.07-0.15-0.08-0.22-0.15-0.29c-0.47-0.18-0.97-0.31-1.47-0.36c-0.56-0.1-1.12-0.15-1.69-0.15c-0.83-0.02-1.66,0.13-2.44,0.44
			c-0.7,0.27-1.31,0.73-1.76,1.33c-0.48,0.57-0.86,1.22-1.13,1.92c-0.23,0.76-0.35,1.55-0.36,2.35c-0.07,1.6,0.45,3.18,1.47,4.42
			c1.14,1.15,2.73,1.74,4.34,1.61c1.08,0.01,2.15-0.19,3.16-0.59c0,0,0.15-0.07,0.07-0.28L759.85,431.76z"/>
		<path class="st2" d="M771.18,425.29c-0.21-0.64-0.53-1.24-0.95-1.77c-0.41-0.45-0.88-0.83-1.41-1.13
			c-0.67-0.31-1.4-0.46-2.13-0.44c-0.86-0.03-1.71,0.15-2.49,0.51c-0.67,0.29-1.26,0.74-1.7,1.33c-0.47,0.56-0.82,1.21-1.03,1.92
			c-0.21,0.77-0.31,1.56-0.29,2.36c0,0.8,0.12,1.59,0.37,2.35c0.21,0.72,0.6,1.38,1.13,1.92c0.54,0.55,1.19,0.98,1.92,1.25
			c0.87,0.31,1.79,0.46,2.72,0.44c1.29,0.06,2.58-0.2,3.75-0.74c0.08-0.07,0.15-0.14,0.08-0.36l-0.52-1.39
			c-0.04-0.12-0.16-0.19-0.28-0.15c0,0-0.01,0-0.01,0c-0.97,0.43-2.02,0.63-3.08,0.59c-0.94,0.04-1.86-0.28-2.57-0.88
			c-0.62-0.68-0.94-1.58-0.88-2.5h7.5c0.09-0.03,0.15-0.12,0.15-0.22C771.47,427.33,771.39,426.3,771.18,425.29z M763.75,426.84
			c0.05-0.63,0.25-1.23,0.59-1.76c0.43-0.76,1.26-1.2,2.13-1.13c0.85-0.04,1.64,0.4,2.06,1.13c0.29,0.54,0.47,1.14,0.51,1.76H763.75
			z"/>
		<path class="st2" d="M711.3,425.29c-0.21-0.64-0.53-1.24-0.95-1.77c-0.41-0.45-0.88-0.83-1.41-1.13c-0.67-0.31-1.4-0.46-2.13-0.44
			c-0.86-0.03-1.72,0.15-2.5,0.51c-0.67,0.29-1.25,0.75-1.69,1.33c-0.47,0.56-0.82,1.21-1.03,1.92c-0.21,0.77-0.31,1.56-0.29,2.36
			c0,0.8,0.12,1.59,0.37,2.35c0.21,0.72,0.6,1.38,1.13,1.92c0.54,0.55,1.19,0.98,1.92,1.25c0.87,0.31,1.79,0.46,2.72,0.44
			c1.29,0.06,2.58-0.2,3.75-0.74c0.08-0.07,0.15-0.14,0.08-0.36l-0.52-1.39c-0.04-0.12-0.16-0.19-0.28-0.15c0,0-0.01,0-0.01,0
			c-0.97,0.43-2.02,0.63-3.08,0.59c-0.94,0.04-1.86-0.28-2.58-0.88c-0.62-0.68-0.93-1.59-0.87-2.5h7.46c0.12,0,0.22-0.1,0.22-0.22
			l0,0C711.61,427.33,711.51,426.3,711.3,425.29z M703.88,426.84c0.04-0.62,0.24-1.23,0.58-1.76c0.45-0.75,1.27-1.18,2.14-1.13
			c0.84-0.05,1.64,0.39,2.05,1.13c0.3,0.54,0.48,1.14,0.52,1.76H703.88z"/>
		<path class="st2" d="M690.63,426.47h-1.13c-0.62-0.01-1.24,0.07-1.84,0.22c-0.56,0.13-1.09,0.38-1.54,0.74
			c-0.47,0.32-0.86,0.76-1.13,1.26c-0.26,0.52-0.39,1.1-0.36,1.69c-0.01,0.58,0.12,1.16,0.36,1.69c0.24,0.44,0.57,0.82,0.96,1.13
			c0.47,0.31,0.99,0.53,1.54,0.66c0.65,0.16,1.32,0.23,1.98,0.23c0.76,0,1.52-0.08,2.27-0.23c0.73-0.15,1.61-0.29,1.9-0.36
			s0.52-0.15,0.52-0.15c0.22-0.08,0.15-0.22,0.15-0.22v-6.8c0.11-1.21-0.3-2.42-1.13-3.31c-0.98-0.73-2.18-1.1-3.4-1.03
			c-0.67-0.01-1.33,0.07-1.98,0.22c-0.8,0.14-1.56,0.41-2.27,0.82c0,0-0.15,0.07-0.07,0.29l0.51,1.39c0.08,0.23,0.23,0.15,0.23,0.15
			c0.06-0.01,0.11-0.03,0.15-0.07c1-0.51,2.11-0.76,3.23-0.74c0.66-0.05,1.31,0.13,1.85,0.51c0.44,0.29,0.59,0.82,0.59,1.77v0.29
			L690.63,426.47z M687.69,431.76c-0.29-0.22-0.37-0.29-0.44-0.44c-0.16-0.29-0.24-0.62-0.23-0.95c-0.03-0.57,0.22-1.12,0.67-1.47
			c0.62-0.44,1.39-0.63,2.14-0.53c0.69,0,1.38,0.05,2.06,0.15v3.4l0,0c-0.66,0.15-1.32,0.24-1.99,0.29
			C689.14,432.31,688.36,432.15,687.69,431.76z"/>
		<path class="st2" d="M750.95,422.69c0.08-0.15-0.07-0.22-0.15-0.29c-0.41-0.1-0.83-0.18-1.25-0.22c-0.65-0.1-1.32,0-1.92,0.29
			c-0.49,0.2-0.92,0.53-1.25,0.95v-0.88c0-0.15-0.08-0.22-0.23-0.22h-1.93c-0.15,0-0.23,0.07-0.23,0.22v11.19
			c0,0.15,0.08,0.22,0.23,0.22h1.98c0.11,0.01,0.2-0.06,0.22-0.17c0-0.02,0-0.03,0-0.05v-5.59c-0.01-0.67,0.07-1.34,0.23-1.99
			c0.12-0.43,0.35-0.81,0.66-1.13c0.27-0.27,0.6-0.47,0.96-0.59c0.34-0.08,0.68-0.13,1.03-0.15c0.27,0.01,0.54,0.03,0.8,0.08
			c0.15,0,0.22-0.08,0.29-0.23S750.88,422.87,750.95,422.69z"/>
		<path class="st2" d="M732.56,417.5c-0.24-0.09-0.48-0.14-0.74-0.15c-0.34-0.06-0.69-0.08-1.03-0.07c-1.16-0.06-2.3,0.35-3.16,1.13
			c-0.83,0.95-1.35,2.14-1.47,3.4l-0.07,0.51h-1.7c-0.12,0-0.22,0.1-0.22,0.22l0,0l-0.34,1.51c-0.01,0.11,0.06,0.2,0.17,0.22
			c0.02,0,0.03,0,0.05,0h1.62l-1.69,9.34c-0.11,0.62-0.26,1.24-0.44,1.85c-0.1,0.38-0.27,0.73-0.52,1.03
			c-0.22,0.22-0.36,0.44-0.66,0.51c-0.29,0.08-0.58,0.13-0.88,0.15c-0.2,0.01-0.4-0.01-0.59-0.08c-0.13,0-0.26-0.05-0.36-0.14
			c-0.12-0.04-0.25,0.01-0.29,0.13c0,0,0,0,0,0.01c-0.08,0.15-0.52,1.41-0.59,1.55c-0.06,0.08-0.05,0.19,0.03,0.25
			c0.03,0.03,0.08,0.04,0.12,0.04c0.22,0.08,0.43,0.16,0.66,0.22c0.37,0.07,0.75,0.09,1.13,0.08c0.63,0.02,1.25-0.08,1.84-0.29
			c0.52-0.23,0.99-0.56,1.39-0.96c0.45-0.48,0.78-1.06,0.96-1.69c0.33-0.8,0.55-1.65,0.66-2.5l1.69-9.55h2.43
			c0.13,0,0.23-0.1,0.23-0.23v0l0.29-1.54c0.01-0.11-0.07-0.21-0.18-0.23c-0.02,0-0.03,0-0.05,0h-2.35
			c0.09-0.57,0.21-1.13,0.36-1.69c0.14-0.29,0.31-0.56,0.52-0.8c0.16-0.21,0.4-0.34,0.66-0.37c0.26-0.09,0.53-0.14,0.8-0.15
			c0.2-0.02,0.4,0.01,0.59,0.08c0.12,0.04,0.25,0.07,0.37,0.07c0.22,0.08,0.29,0,0.29-0.15l0.59-1.54
			C732.71,417.58,732.56,417.5,732.56,417.5z"/>
		<path class="st2" d="M699.1,433.68c0,0.15-0.08,0.22-0.23,0.22h-1.98c-0.15,0-0.23-0.07-0.23-0.22v-15.96
			c-0.01-0.11,0.07-0.21,0.18-0.23c0.02,0,0.03,0,0.05,0h2.02c0.11-0.01,0.21,0.07,0.23,0.18c0,0.02,0,0.03,0,0.05L699.1,433.68z"/>
		<path class="st2" d="M802.04,417.02c1,0,1.99,0.15,2.95,0.44c0.91,0.27,1.75,0.72,2.49,1.31l-1.13,1.92
			c-1.24-0.93-2.75-1.43-4.31-1.41c-1.52-0.1-2.99,0.53-3.97,1.69c-0.94,1.36-1.4,2.99-1.33,4.64c-0.09,1.62,0.38,3.22,1.33,4.53
			c0.95,1.21,2.43,1.87,3.97,1.77c1.58-0.02,3.12-0.51,4.42-1.39l1.02,1.92c-1.63,1.17-3.59,1.78-5.59,1.76
			c-1.6,0.05-3.18-0.38-4.53-1.25c-1.17-0.79-2.07-1.92-2.57-3.24c-0.53-1.33-0.81-2.75-0.82-4.18c-0.11-2.28,0.65-4.52,2.13-6.26
			C797.69,417.74,799.84,416.93,802.04,417.02z"/>
		<path class="st2" d="M824.96,425.59c0.04,1.57-0.29,3.12-0.96,4.53c-0.63,1.29-1.63,2.37-2.87,3.09c-2.76,1.46-6.07,1.46-8.83,0
			c-1.24-0.73-2.23-1.8-2.87-3.09c-0.67-1.41-1-2.97-0.95-4.53c-0.11-2.28,0.65-4.51,2.13-6.24c1.58-1.61,3.78-2.46,6.03-2.36
			c1.59-0.04,3.15,0.35,4.53,1.13c1.23,0.68,2.21,1.74,2.8,3.03C824.7,422.51,825.05,424.05,824.96,425.59z M811.35,425.59
			c-0.09,1.67,0.38,3.33,1.33,4.7c0.97,1.23,2.49,1.89,4.05,1.77c1.58,0.11,3.11-0.55,4.11-1.77c0.94-1.38,1.41-3.03,1.33-4.7
			c0.09-1.67-0.38-3.33-1.33-4.7c-1-1.23-2.54-1.89-4.11-1.77c-1.56-0.12-3.08,0.54-4.05,1.77c-0.94,1.38-1.41,3.03-1.34,4.7H811.35
			z"/>
		<path class="st2" d="M828.11,421.1c0-1.23-0.08-2.45-0.23-3.67h2.65c0.07,0.58,0.15,1.31,0.22,2.35h0.08
			c0.56-0.85,1.35-1.54,2.27-1.98c0.99-0.54,2.1-0.82,3.23-0.8c1.2-0.05,2.38,0.25,3.4,0.88c0.89,0.57,1.56,1.43,1.9,2.43h0.08
			c1.11-2.09,3.31-3.36,5.67-3.28c1.2-0.04,2.38,0.26,3.4,0.88c0.87,0.58,1.56,1.39,1.98,2.35c0.45,0.99,0.67,2.07,0.66,3.16v10.52
			h-2.72v-10.14c0.05-1.12-0.26-2.23-0.88-3.16c-0.68-0.92-1.79-1.42-2.94-1.33c-0.92,0-1.82,0.28-2.57,0.8
			c-0.73,0.51-1.3,1.23-1.62,2.06c-0.37,0.89-0.54,1.84-0.52,2.8v8.96h-2.72v-10.2c0.04-1.13-0.29-2.24-0.95-3.16
			c-0.7-0.9-1.81-1.37-2.95-1.25c-1.3-0.05-2.55,0.49-3.4,1.47c-0.84,1.04-1.28,2.34-1.26,3.67v9.42h-2.72L828.11,421.1z"/>
		<path class="st2" d="M857.39,421.1c0-1.23-0.08-2.45-0.23-3.67h2.67c0.08,0.58,0.15,1.31,0.22,2.35h0.08
			c0.56-0.85,1.35-1.54,2.27-1.98c0.96-0.51,2.02-0.77,3.11-0.77c1.2-0.06,2.38,0.25,3.4,0.88c0.89,0.58,1.56,1.43,1.92,2.43h0.07
			c1.11-2.12,3.34-3.41,5.73-3.31c1.2-0.04,2.38,0.26,3.4,0.88c0.87,0.58,1.56,1.39,1.98,2.35c0.45,0.99,0.68,2.07,0.67,3.16v10.52
			h-2.73v-10.14c0.05-1.12-0.26-2.23-0.88-3.16c-0.68-0.92-1.79-1.42-2.94-1.33c-1.85,0.01-3.51,1.14-4.19,2.87
			c-0.37,0.89-0.54,1.84-0.52,2.8v8.96h-2.79v-10.2c0.05-1.13-0.29-2.25-0.96-3.16c-0.69-0.9-1.81-1.37-2.94-1.25
			c-1.3-0.05-2.55,0.49-3.4,1.47c-0.83,1.04-1.28,2.34-1.25,3.67v9.42h-2.72V421.1H857.39z"/>
		<path class="st2" d="M900.72,426.62H888.5c-0.01,1.47,0.54,2.89,1.55,3.97c1.03,1.03,2.45,1.57,3.9,1.47
			c0.89,0,1.78-0.13,2.64-0.36c0.82-0.29,1.62-0.67,2.36-1.13l1.25,1.77c-0.91,0.64-1.9,1.15-2.94,1.54
			c-1.1,0.36-2.25,0.53-3.4,0.51c-2.21,0.11-4.36-0.74-5.89-2.35c-1.47-1.78-2.23-4.03-2.13-6.34c-0.03-1.54,0.27-3.06,0.88-4.48
			c0.52-1.27,1.43-2.34,2.58-3.07c1.23-0.77,2.66-1.16,4.11-1.13c2.08-0.11,4.1,0.76,5.44,2.36c1.34,1.77,2.02,3.96,1.92,6.18
			C900.8,425.91,900.78,426.27,900.72,426.62z M898.14,424.49c0.04-1.4-0.4-2.78-1.25-3.9c-1.83-1.91-4.87-1.97-6.78-0.14
			c-0.07,0.07-0.14,0.14-0.2,0.21c-0.89,1.1-1.35,2.48-1.33,3.9L898.14,424.49L898.14,424.49z"/>
		<path class="st2" d="M903.88,421.1c0-1.23-0.08-2.45-0.23-3.67h2.65c0.07,0.73,0.15,1.61,0.22,2.64h0.08
			c0.89-2.01,2.96-3.23,5.15-3.05c0.32,0,0.64,0.02,0.96,0.07l-0.15,2.36c-0.34-0.08-0.69-0.11-1.03-0.08
			c-1.38-0.08-2.72,0.49-3.6,1.55c-0.88,1.19-1.32,2.64-1.26,4.11v8.83h-2.72l-0.07-12.73V421.1z"/>
		<path class="st2" d="M921.46,417.02c1,0,1.99,0.15,2.95,0.44c0.91,0.27,1.75,0.72,2.49,1.31l-1.13,1.92
			c-1.25-0.94-2.78-1.43-4.34-1.39c-1.52-0.1-2.99,0.53-3.98,1.69c-0.93,1.36-1.39,2.99-1.31,4.64c-0.08,1.62,0.38,3.21,1.31,4.53
			c0.95,1.21,2.44,1.87,3.98,1.77c1.58-0.02,3.11-0.5,4.41-1.39l1.03,1.92c-1.63,1.17-3.59,1.78-5.59,1.76
			c-1.6,0.05-3.18-0.38-4.53-1.25c-1.17-0.79-2.07-1.92-2.58-3.24c-0.53-1.33-0.8-2.75-0.8-4.18c-0.11-2.28,0.65-4.52,2.13-6.26
			C917.08,417.72,919.24,416.9,921.46,417.02z"/>
		<path class="st2" d="M942.87,426.62h-12.22c-0.01,1.47,0.54,2.89,1.55,3.97c1.02,1.03,2.44,1.56,3.89,1.47
			c0.9,0,1.79-0.13,2.65-0.36c0.82-0.29,1.62-0.67,2.36-1.13l1.25,1.77c-0.91,0.64-1.9,1.15-2.94,1.54
			c-1.12,0.36-2.28,0.53-3.46,0.51c-2.21,0.11-4.36-0.74-5.89-2.35c-1.47-1.78-2.23-4.03-2.13-6.34c-0.03-1.54,0.27-3.06,0.88-4.48
			c0.54-1.28,1.47-2.35,2.65-3.07c1.23-0.77,2.66-1.16,4.11-1.13c2.08-0.11,4.1,0.76,5.44,2.36c1.34,1.77,2.02,3.96,1.92,6.18
			C942.94,425.95,942.87,426.39,942.87,426.62z M940.22,424.49c0.02-1.4-0.41-2.77-1.25-3.9c-1.84-1.91-4.88-1.97-6.79-0.13
			c-0.07,0.07-0.13,0.13-0.2,0.2c-0.88,1.11-1.35,2.48-1.33,3.9L940.22,424.49L940.22,424.49z"/>
		<path class="st2" d="M959.93,417.02c1,0,1.99,0.15,2.95,0.44c0.91,0.27,1.76,0.72,2.5,1.31l-1.13,1.92
			c-1.25-0.94-2.78-1.43-4.34-1.39c-1.51-0.09-2.98,0.53-3.97,1.69c-0.94,1.36-1.4,2.99-1.33,4.64c-0.09,1.62,0.38,3.22,1.33,4.53
			c0.95,1.21,2.43,1.87,3.97,1.77c1.58-0.02,3.12-0.51,4.42-1.39l1.03,1.92c-1.63,1.17-3.59,1.78-5.6,1.76
			c-1.6,0.05-3.18-0.38-4.53-1.25c-1.17-0.79-2.07-1.92-2.57-3.24c-0.53-1.33-0.81-2.75-0.82-4.18c-0.12-2.28,0.65-4.52,2.14-6.26
			C955.57,417.74,957.72,416.93,959.93,417.02z"/>
		<path class="st2" d="M971.33,411.03v22.8h-2.69v-22.8H971.33z"/>
		<path class="st2" d="M991.05,425.59c0.04,1.57-0.29,3.12-0.96,4.53c-0.63,1.29-1.62,2.37-2.87,3.09c-2.76,1.46-6.07,1.46-8.83,0
			c-1.24-0.73-2.23-1.8-2.87-3.09c-0.67-1.41-1-2.97-0.95-4.53c-0.11-2.28,0.65-4.51,2.13-6.24c1.58-1.61,3.78-2.46,6.03-2.36
			c1.59-0.04,3.15,0.35,4.53,1.13c1.24,0.68,2.22,1.74,2.8,3.03C990.76,422.52,991.1,424.05,991.05,425.59z M977.37,425.59
			c-0.09,1.67,0.37,3.32,1.31,4.7c0.97,1.23,2.49,1.89,4.05,1.77c1.58,0.11,3.11-0.55,4.13-1.77c0.94-1.38,1.41-3.03,1.33-4.7
			c0.09-1.67-0.38-3.33-1.33-4.7c-1-1.23-2.54-1.89-4.13-1.77c-1.56-0.12-3.08,0.54-4.05,1.77
			C977.75,422.27,977.29,423.92,977.37,425.59z"/>
		<path class="st2" d="M993.58,427.51v-10.08h2.8v9.7c-0.07,1.27,0.26,2.53,0.95,3.6c0.71,0.93,1.84,1.46,3.01,1.41
			c1.4,0.03,2.74-0.6,3.6-1.7c0.92-1.2,1.39-2.68,1.33-4.19v-8.82h2.72v12.8c0,1.23,0.08,2.45,0.23,3.67h-2.65
			c-0.08-0.66-0.15-1.54-0.23-2.64h0.08c-1.14,2.03-3.34,3.23-5.67,3.08c-1.76,0.12-3.47-0.58-4.64-1.9
			C994.04,431.03,993.49,429.28,993.58,427.51z"/>
		<path class="st2" d="M1026.8,433.83h-2.62c-0.14-0.8-0.21-1.61-0.23-2.43h-0.07c-2.5,3.23-7.14,3.82-10.37,1.32
			c-0.32-0.25-0.61-0.52-0.89-0.81c-1.3-1.82-1.95-4.02-1.84-6.26c-0.02-1.52,0.28-3.02,0.88-4.41c1.73-3.77,6.19-5.43,9.96-3.7
			c0.78,0.36,1.48,0.84,2.1,1.43v-8.09h2.72v19.2C1026.58,431.4,1026.65,432.58,1026.8,433.83z M1023.85,426.77v-5.15
			c-0.6-0.76-1.35-1.38-2.2-1.85c-0.88-0.39-1.84-0.59-2.8-0.59c-1.49-0.08-2.91,0.62-3.75,1.85c-0.96,1.37-1.45,3.03-1.39,4.7
			c-0.09,1.67,0.38,3.33,1.33,4.7c0.85,1.16,2.24,1.8,3.67,1.7c1.4,0.04,2.76-0.49,3.75-1.47
			C1023.38,429.58,1023.87,428.19,1023.85,426.77L1023.85,426.77z"/>
		<rect x="612.8" y="517.46" class="st2" width="456.8" height="21.92"/>
		<g>
			<path class="st2" d="M728.52,530.71h6.8v2.43h-9.63v-15.67h2.87v13.25H728.52z"/>
			<path class="st2" d="M741.1,530.92h1.84v2.21h-6.47v-2.21h1.84v-11.33h-1.84v-2.14h6.47v2.14h-1.84V530.92z"/>
			<path class="st2" d="M745.73,517.46h3.31l7.72,11.63h0.08l-0.08-11.63h2.65v15.6h-3.31l-7.73-11.7h-0.07l0.07,11.7h-2.72
				L745.73,517.46z"/>
			<path class="st2" d="M766.77,526.58l-0.96,0.96v5.59h-2.87v-15.67h2.83v6.4l6.11-6.4h3.46l-6.8,7.07l7.29,8.52h-3.6
				L766.77,526.58z"/>
			<path class="st2" d="M796.04,519.02l-1.62,1.84c-0.5-0.42-1.07-0.74-1.69-0.95c-0.66-0.24-1.36-0.37-2.06-0.37
				c-1.42-0.11-2.81,0.47-3.75,1.54c-0.84,1.23-1.24,2.71-1.13,4.19c-0.09,1.46,0.3,2.92,1.13,4.13c0.91,1.07,2.28,1.64,3.68,1.54
				c0.73,0.01,1.46-0.14,2.13-0.44c0.64-0.29,1.24-0.67,1.77-1.13l1.76,1.92c-0.72,0.69-1.57,1.24-2.49,1.61
				c-1.03,0.42-2.13,0.62-3.24,0.59c-1.49,0.04-2.96-0.32-4.26-1.03c-1.17-0.68-2.1-1.7-2.65-2.94c-0.61-1.34-0.91-2.8-0.88-4.27
				c-0.03-1.49,0.27-2.98,0.88-4.34c0.56-1.23,1.52-2.24,2.72-2.87c1.31-0.71,2.78-1.06,4.27-1.03c1.05-0.02,2.1,0.16,3.08,0.52
				C794.55,517.88,795.35,518.39,796.04,519.02z"/>
			<path class="st2" d="M807.81,528.35h-8.04c0.09,0.79,0.42,1.54,0.95,2.13c0.61,0.54,1.4,0.8,2.21,0.74
				c0.57,0.02,1.14-0.06,1.69-0.22c0.56-0.18,1.09-0.46,1.55-0.82l1.13,1.77c-0.63,0.51-1.36,0.89-2.13,1.13
				c-0.81,0.24-1.65,0.37-2.49,0.37c-1.08,0.04-2.15-0.21-3.09-0.74c-0.87-0.48-1.56-1.23-1.98-2.13c-0.46-0.99-0.69-2.07-0.67-3.16
				c-0.07-1.6,0.46-3.18,1.47-4.42c1.06-1.13,2.58-1.72,4.13-1.62c1.5-0.1,2.97,0.5,3.97,1.62c0.94,1.28,1.41,2.84,1.33,4.42
				C807.86,527.74,807.85,528.05,807.81,528.35z M805.17,526.29c0.01-0.74-0.23-1.46-0.67-2.05c-0.48-0.54-1.18-0.84-1.9-0.82
				c-0.75-0.04-1.49,0.26-1.99,0.82c-0.46,0.59-0.74,1.3-0.8,2.05H805.17z"/>
			<path class="st2" d="M810.61,524.24c-0.03-0.89-0.1-1.77-0.22-2.65h2.64c0.08,0.54,0.13,1.08,0.15,1.62h0.08
				c0.65-1.26,1.99-2.01,3.4-1.92c0.25-0.01,0.5,0.01,0.74,0.07l-0.07,2.36c-0.27-0.06-0.54-0.08-0.82-0.07
				c-0.86-0.04-1.69,0.31-2.27,0.95c-0.53,0.69-0.82,1.55-0.8,2.43v6.03h-2.8v-8.82H810.61z"/>
			<path class="st2" d="M822.52,521.73h2.88v2.13h-2.88v5.73c0,1.13,0.52,1.62,1.47,1.62c0.35,0,0.7-0.05,1.03-0.15l0.37,2.06
				c-0.64,0.24-1.31,0.36-1.99,0.36c-0.98,0.08-1.94-0.27-2.64-0.95c-0.69-0.7-1.04-1.67-0.96-2.65v-5.95h-1.89v-1.77l1.84-0.37
				v-2.72l2.79-0.95v3.6L822.52,521.73z"/>
			<path class="st2" d="M827.45,518.05c-0.07-0.82,0.54-1.55,1.36-1.62c0.11-0.01,0.23-0.01,0.34,0.01
				c0.48-0.04,0.95,0.12,1.31,0.44c0.28,0.31,0.41,0.72,0.37,1.13c0.02,0.42-0.14,0.83-0.44,1.13c-0.79,0.57-1.86,0.57-2.65,0
				C827.5,518.84,827.39,518.44,827.45,518.05z M830.46,533.13h-2.79v-11.48h2.79V533.13z"/>
			<path class="st2" d="M844.6,533.13h-2.8v-9.27h-4.62v9.27h-2.8v-9.27h-1.73v-1.77l1.84-0.36v-0.59c-0.05-1.1,0.41-2.16,1.25-2.87
				c1.07-0.75,2.37-1.12,3.68-1.03c1.69,0,3.34,0.45,4.78,1.33l-0.96,1.92c-1.15-0.7-2.47-1.09-3.82-1.13
				c-0.6-0.05-1.2,0.1-1.7,0.44c-0.4,0.39-0.59,0.94-0.53,1.5v0.51h7.36l0.08,11.33H844.6z"/>
			<path class="st2" d="M858.05,528.35h-8.01c0.09,0.79,0.42,1.54,0.95,2.13c0.61,0.54,1.4,0.8,2.21,0.74
				c0.57,0.02,1.14-0.06,1.69-0.22c0.56-0.18,1.08-0.46,1.54-0.82l1.13,1.77c-0.63,0.51-1.36,0.89-2.13,1.13
				c-0.81,0.25-1.66,0.37-2.5,0.37c-1.08,0.04-2.14-0.21-3.08-0.74c-0.85-0.5-1.54-1.24-1.98-2.13c-0.46-0.99-0.69-2.07-0.67-3.16
				c-0.07-1.6,0.46-3.18,1.47-4.42c1.06-1.13,2.57-1.72,4.11-1.62c1.51-0.12,2.98,0.48,3.98,1.62c0.94,1.28,1.41,2.84,1.33,4.42
				C858.11,527.74,858.1,528.05,858.05,528.35z M855.41,526.29c0.01-0.74-0.23-1.46-0.67-2.05c-0.48-0.55-1.19-0.85-1.92-0.82
				c-0.75-0.04-1.48,0.26-1.98,0.82c-0.47,0.58-0.76,1.3-0.8,2.05H855.41z"/>
			<path class="st2" d="M871.58,533.13h-2.57c-0.08-0.49-0.12-0.98-0.15-1.47h-0.07c-0.4,0.55-0.93,1.01-1.54,1.33
				c-0.71,0.31-1.49,0.46-2.27,0.44c-1.39,0.07-2.73-0.53-3.6-1.62c-1.42-2.22-1.64-5-0.59-7.42c0.37-0.93,1.02-1.72,1.85-2.27
				c0.85-0.55,1.85-0.83,2.87-0.82c1.18-0.06,2.34,0.35,3.23,1.13v-5.08h2.8v13.02C871.4,531.29,871.41,532.23,871.58,533.13z
				 M868.65,528.09v-3.4c-0.72-0.77-1.75-1.18-2.8-1.13c-0.83-0.02-1.63,0.37-2.13,1.03c-0.54,0.85-0.8,1.86-0.74,2.87
				c-0.07,0.99,0.18,1.98,0.74,2.8c0.47,0.62,1.21,0.98,1.98,0.95c0.8,0.03,1.58-0.3,2.13-0.88
				C868.38,529.71,868.67,528.91,868.65,528.09z"/>
			<path class="st2" d="M892.33,522.68c0.02,1.04-0.26,2.07-0.82,2.95c-0.51,0.8-1.25,1.42-2.13,1.77
				c-0.93,0.39-1.93,0.59-2.94,0.59h-2.73v5.07h-2.87v-15.6h5.67c1.53-0.07,3.04,0.4,4.26,1.33
				C891.87,519.78,892.44,521.22,892.33,522.68z M883.64,519.82v5.88h2.5c0.82,0.04,1.62-0.23,2.27-0.74
				c1.24-1.22,1.28-3.22,0.07-4.48c-0.67-0.46-1.46-0.69-2.27-0.67H883.64z"/>
			<path class="st2" d="M892.99,529.89c-0.12-1.28,0.51-2.51,1.62-3.16c1.45-0.67,3.04-0.97,4.64-0.88h1.13v-0.59
				c0-1.25-0.8-1.84-2.35-1.84c-1.16,0.01-2.3,0.32-3.32,0.88l-0.99-1.88c0.66-0.4,1.38-0.7,2.13-0.88c0.74-0.2,1.5-0.3,2.27-0.29
				c1.38-0.15,2.76,0.26,3.83,1.13c0.85,1,1.26,2.3,1.13,3.6v4.34c0.02,0.88,0.09,1.77,0.22,2.64h-2.57
				c-0.05-0.44-0.12-0.88-0.22-1.31h-0.08c-0.39,0.5-0.89,0.89-1.47,1.13c-0.72,0.3-1.49,0.42-2.27,0.37
				c-0.96,0.03-1.89-0.29-2.64-0.88C893.32,531.71,892.92,530.82,892.99,529.89z M900.28,528.65v-0.88h-0.77
				c-0.95-0.06-1.9,0.09-2.79,0.44c-0.57,0.29-0.89,0.91-0.82,1.54c-0.01,0.42,0.15,0.83,0.44,1.13c0.3,0.29,0.71,0.45,1.13,0.44
				c0.51-0.01,1.02-0.13,1.47-0.36c0.41-0.24,0.76-0.57,1.03-0.96C900.23,529.59,900.33,529.12,900.28,528.65z"/>
			<path class="st2" d="M906.38,524.24c-0.02-0.89-0.09-1.77-0.22-2.65h2.65c0.08,0.54,0.13,1.08,0.15,1.62h0.07
				c0.65-1.26,1.99-2.01,3.4-1.92c0.25-0.01,0.5,0.01,0.74,0.07l-0.08,2.36c-0.26-0.06-0.53-0.08-0.8-0.07
				c-0.86-0.04-1.69,0.31-2.27,0.95c-0.53,0.69-0.82,1.55-0.8,2.43v6.03h-2.8v-8.82H906.38z"/>
			<path class="st2" d="M918.3,521.73h2.87v2.13h-2.87v5.73c0,1.13,0.51,1.62,1.47,1.62c0.35-0.01,0.7-0.05,1.03-0.15l0.36,2.06
				c-0.63,0.24-1.31,0.36-1.98,0.36c-0.98,0.08-1.95-0.27-2.65-0.95c-0.68-0.71-1.02-1.67-0.95-2.65v-5.95h-1.92v-1.77l1.84-0.37
				v-2.72l2.8-0.95L918.3,521.73L918.3,521.73z"/>
			<path class="st2" d="M923.52,524.24c-0.03-0.89-0.1-1.77-0.23-2.65h2.65c0.08,0.44,0.13,0.88,0.15,1.33h0.07
				c0.41-0.51,0.94-0.9,1.55-1.13c0.72-0.31,1.49-0.46,2.27-0.44c0.82-0.03,1.64,0.18,2.35,0.59c0.61,0.36,1.1,0.9,1.41,1.54
				c0.29,0.65,0.44,1.35,0.44,2.06v7.57h-2.8v-6.98c0.04-0.63-0.14-1.26-0.51-1.77c-0.46-0.48-1.11-0.72-1.77-0.66
				c-0.79-0.04-1.55,0.29-2.06,0.88c-0.51,0.61-0.78,1.4-0.74,2.2v6.4h-2.79v-8.94H923.52z"/>
			<path class="st2" d="M947.51,528.35h-8.02c0.09,0.79,0.42,1.54,0.95,2.13c0.61,0.54,1.4,0.8,2.21,0.74
				c0.57,0.02,1.14-0.06,1.69-0.22c0.56-0.18,1.09-0.46,1.55-0.82l1.13,1.77c-0.64,0.51-1.36,0.89-2.14,1.13
				c-0.81,0.25-1.65,0.37-2.49,0.37c-1.08,0.04-2.15-0.21-3.09-0.74c-0.85-0.51-1.54-1.24-1.98-2.13c-0.46-0.99-0.69-2.07-0.67-3.16
				c-0.07-1.6,0.46-3.18,1.47-4.42c1.06-1.13,2.58-1.72,4.13-1.62c1.5-0.12,2.98,0.48,3.97,1.62c0.94,1.28,1.41,2.84,1.33,4.42
				C947.55,527.74,947.54,528.05,947.51,528.35z M944.84,526.29c0.01-0.74-0.23-1.46-0.67-2.05c-0.48-0.54-1.18-0.84-1.9-0.82
				c-0.75-0.04-1.49,0.26-1.99,0.82c-0.47,0.59-0.75,1.3-0.8,2.05H944.84z"/>
			<path class="st2" d="M950.29,524.24c-0.02-0.89-0.09-1.77-0.22-2.65h2.7c0.08,0.54,0.13,1.08,0.15,1.62H953
				c0.65-1.26,1.99-2.01,3.4-1.92c0.25-0.01,0.5,0.01,0.74,0.07l-0.15,2.36c-0.26-0.06-0.53-0.08-0.8-0.07
				c-0.86-0.04-1.69,0.31-2.27,0.95c-0.54,0.69-0.83,1.55-0.82,2.43v6.03h-2.72L950.29,524.24z"/>
		</g>
	</g>
</g>
<path class="st23" d="M628.63,426.37c2.11-4.9,6.89-8.11,12.22-8.22h117.78c7.44-0.15,13.6,5.76,13.75,13.2c0,0.18,0,0.37,0,0.55
	v45.19c-0.25,6.99-5.77,12.63-12.75,13.03c-14.31,0.07-28.63,0-42.94,0c1.93,4.77,3.85,9.46,5.77,14.24
	c-8.55-4.69-16.94-9.54-25.56-14.17c-18.8-0.15-37.67,0-56.54-0.07c-6.96-0.43-12.47-6.06-12.75-13.03
	c-0.07-14.73,0-29.47-0.07-44.2c-0.09-2.24,0.3-4.47,1.13-6.55"/>
<path class="st24" d="M686.21,427.44c2.14-2.27,6.27-1.56,7.93,1.08c0.85,1.41,0.92,3.15,0.2,4.62c-2.98,5.98-4.27,12.6-5.41,19.09
	c-1.35,8.48-2.49,17.09-2.06,25.7c0.14,2.21-0.93,4.85-3.28,5.42s-4.27-1-5.67-2.56c-6.41-6.91-10.04-15.81-12.67-24.72
	c-2.64,5.2-5.27,10.47-7.84,15.67c-1.63,3.68-3.84,7.07-6.55,10.04c-1.21,1.2-3.28,2.27-4.84,1.07c-2.35-2.06-2.92-5.34-3.92-8.11
	c-3.77-13.03-5.9-26.5-8.11-39.88c-0.5-2.27,0.43-4.92,2.64-5.77c1.78-0.65,4.13-0.78,5.67,0.57c0.94,1.04,1.49,2.37,1.56,3.77
	c1.56,10.4,3.4,20.73,5.92,30.91c4.27-8.11,8.55-16.23,12.82-24.42c0.56-1.25,1.45-2.34,2.56-3.14c1.64-1.06,3.79-0.85,5.2,0.5
	c0.98,1.23,1.59,2.71,1.78,4.27c1.18,6.71,2.99,13.3,5.38,19.69c1.07-9.61,2.41-19.37,5.9-28.41c0.65-1.93,1.59-3.76,2.78-5.42
	 M710.35,432.59c4.73-0.62,9.47,1.07,12.75,4.53c2.51,2.97,4.08,6.61,4.53,10.47c0.8,6.57-0.45,13.23-3.56,19.07
	c-1.64,3.42-4.18,6.32-7.34,8.41c-4.94,2.84-11.05,2.64-15.8-0.5c-3.71-2.56-5.77-6.8-6.63-11.11c-1.71-9.76,1.21-20.58,8.55-27.35
	c2.1-1.91,4.73-3.12,7.55-3.49 M711.32,442.61c-2.21,0.71-3.64,2.78-4.84,4.62c-2.99,4.84-3.85,11.19-1.43,16.38
	c0.65,1.36,1.63,2.86,3.28,3.14c1.7,0.12,3.37-0.53,4.53-1.78c2.71-2.36,4.06-5.85,4.77-9.33c0.88-4,0.19-8.18-1.93-11.68
	c-1.03-1.31-2.75-1.84-4.34-1.35 M747.4,432.64c4.61-0.64,9.25,0.91,12.53,4.2c2.77,3.13,4.44,7.08,4.77,11.25
	c0.68,6.33-0.53,12.73-3.49,18.37c-1.67,3.52-4.28,6.5-7.55,8.61c-4.78,2.7-10.64,2.6-15.32-0.26c-3-1.97-5.24-4.91-6.35-8.33
	c-3.17-10.47-0.53-21.83,6.91-29.84c2.33-2.17,5.25-3.58,8.4-4.06 M748.31,442.57c-2.41,0.85-3.84,3.2-5.12,5.27
	c-2.71,4.77-3.4,10.96-0.93,16.01c0.55,1.52,1.89,2.62,3.49,2.86c1.78-0.11,3.44-0.93,4.62-2.27c2.79-2.71,3.99-6.55,4.42-10.32
	c0.53-3.57-0.26-7.22-2.21-10.26c-1.02-1.27-2.72-1.78-4.27-1.28"/>
<path class="st25" d="M796.73,434.02c3.95-0.84,8.04-0.79,11.97,0.15v9.61c-3.21-0.78-6.8-1.5-9.91,0
	c-3.63,2.03-5.85,5.89-5.77,10.04c-0.22,3.99,1.13,8.48,4.7,10.76c3.28,2.13,7.48,1.71,11.04,0.71v9.53c-4.8,1.37-9.9,1.19-14.6-0.5
	c-5.63-2.18-9.94-6.83-11.68-12.6c-1.28-4.35-1.42-8.96-0.42-13.39C783.9,441.2,789.56,435.68,796.73,434.02 M825.65,433.52
	c4.84-0.57,10.11,0.22,14.03,3.28s5.67,7.7,6.34,12.25c0.76,5.08,0.39,10.26-1.07,15.18c-1.27,4.25-4.2,7.81-8.11,9.89
	c-4.15,1.81-8.79,2.18-13.18,1.07c-4.05-0.94-7.52-3.55-9.54-7.19c-2.78-4.85-3.28-10.62-3.06-16.09c0.22-4.7,1.43-9.62,4.53-13.25
	c2.61-2.88,6.18-4.71,10.04-5.13 M827.12,442.71c-2.06,0.5-3.28,2.56-3.77,4.53c-0.83,3.86-1.02,7.83-0.57,11.75
	c0.28,2.13,0.5,4.41,1.99,6.12c2.06,2.07,5.41,2.09,7.49,0.03c0.12-0.12,0.24-0.25,0.35-0.38c1.08-1.55,1.7-3.38,1.78-5.27
	c0.46-3.29,0.46-6.62,0-9.91c-0.23-2.04-1.04-3.97-2.35-5.55c-1.31-1.25-3.17-1.74-4.92-1.28 M1017.05,434.21
	c4.14-0.99,8.45-1.01,12.6-0.07c0.07,3.2,0,6.4,0.07,9.68c-3.13-0.78-6.62-1.5-9.68-0.14c-3.49,1.77-5.77,5.27-5.98,9.18
	c-0.43,4.27,0.71,9.07,4.53,11.61c3.28,2.27,7.55,1.86,11.17,0.79c-0.07,3.2,0.08,6.47-0.07,9.68c-5.09,1.38-10.49,1.05-15.38-0.93
	c-5.38-2.4-9.4-7.1-10.93-12.8c-1.17-4.3-1.24-8.83-0.2-13.17c1.77-6.82,7.07-12.16,13.88-13.96 M852.35,434.37h13.75
	c1.64,7.41,3.21,14.88,4.62,22.36c1.29-7.55,3.07-14.95,4.85-22.36h14.1c1.85,13.46,3.65,26.9,5.41,40.31h-10.74
	c-1-9.19-1.86-18.45-2.92-27.63c-2.21,9.18-4.53,18.44-6.7,27.63h-7.33c-2.35-9.19-4.62-18.45-7.05-27.71
	c-0.93,9.19-1.85,18.45-2.78,27.71h-10.32C848.93,461.29,850.64,447.85,852.35,434.37 M901.63,434.37h13.75
	c1.64,7.41,3.21,14.88,4.64,22.36c1.35-7.48,3.06-14.95,4.84-22.36h14.03c1.84,13.46,3.65,26.9,5.41,40.31h-10.78
	c-1-9.19-1.92-18.45-2.91-27.63c-2.27,9.18-4.42,18.44-6.7,27.63h-7.33c-2.35-9.26-4.7-18.45-7.05-27.71
	c-0.93,9.26-1.85,18.45-2.78,27.71h-10.32c1.78-13.4,3.51-26.83,5.19-40.31 M947.4,434.52c7.33-0.15,14.73,0,22.08-0.08v8.65
	c-3.71,0.07-7.41,0-11.12,0v7.4h9.62v8.33h-9.54v7.41h11.19v8.59h-22.13c-0.07-13.45,0.07-26.85-0.07-40.3 M972.63,434.37
	c4.62,0,9.19-0.07,13.82,0c4.34,0.15,8.98,1.21,12.17,4.27c2.89,2.86,3.96,7.08,2.78,10.97c-0.95,3.05-3.15,5.56-6.05,6.9
	c2.86,6.05,5.77,12.1,8.69,18.13h-11.47c-2.99-6.2-5.9-12.4-8.96-18.52c-0.08,6.19,0,12.39,0,18.52h-10.9
	c-0.07-13.4-0.07-26.85-0.07-40.31 M983.52,442.1v9.61c1.99-0.14,4.14-0.22,5.77-1.42c1.93-1.43,1.71-4.35,0.5-6.2
	C988.3,442.32,985.67,442.32,983.52,442.1 M1032.8,434.41h21.98v8.68h-11.17v7.4h9.61v8.33h-9.61v7.41h11.24v8.59h-22.08
	c-0.07-13.53,0-26.99,0-40.38"/>
</svg>
